<mxfile host="app.diagrams.net" modified="2022-06-14T14:07:36.956Z" agent="5.0 (X11; Linux x86_64) AppleWebKit/537.36 (KHTML, like Gecko) Chrome/102.0.0.0 Safari/537.36" etag="cJVCk3lZg3HwBoLsilIo" version="20.0.1" type="github">
  <diagram id="C5RBs43oDa-KdzZeNtuy" name="Page-1">
    <mxGraphModel dx="1695" dy="1662" grid="1" gridSize="10" guides="1" tooltips="1" connect="1" arrows="1" fold="1" page="1" pageScale="1" pageWidth="827" pageHeight="1169" math="0" shadow="0">
      <root>
        <mxCell id="WIyWlLk6GJQsqaUBKTNV-0" />
        <mxCell id="WIyWlLk6GJQsqaUBKTNV-1" parent="WIyWlLk6GJQsqaUBKTNV-0" />
        <mxCell id="UL5XW_X2hr35cnpbsUzt-4" value="&lt;p style=&quot;margin:0px;margin-top:4px;text-align:center;&quot;&gt;&lt;b&gt;FrequenciaMensal&lt;/b&gt;&lt;/p&gt;&lt;hr size=&quot;1&quot;&gt;&lt;p style=&quot;margin:0px;margin-left:4px;&quot;&gt;- id: int&lt;/p&gt;&lt;p style=&quot;margin:0px;margin-left:4px;&quot;&gt;- planoTrabalho: PlanoTrabalho&lt;/p&gt;&lt;p style=&quot;margin:0px;margin-left:4px;&quot;&gt;- mesAno:Date&lt;/p&gt;&lt;p style=&quot;margin:0px;margin-left:4px;&quot;&gt;- historicoSituacao:List&amp;lt;SituacaoFrequenciaMensal&amp;gt;&lt;/p&gt;&lt;p style=&quot;margin:0px;margin-left:4px;&quot;&gt;-&amp;nbsp;&lt;span style=&quot;background-color: initial;&quot;&gt;Atividades:List&amp;lt;AtividadePesquisa&amp;gt;&lt;/span&gt;&lt;/p&gt;&lt;hr size=&quot;1&quot;&gt;&lt;p style=&quot;margin:0px;margin-left:4px;&quot;&gt;&lt;span style=&quot;background-color: initial;&quot;&gt;+ removeAtividade(AtividadePesquisa atividade):void&lt;/span&gt;&lt;br&gt;&lt;/p&gt;&amp;nbsp;+ adicionaAtividade(AtividadePesquisa atividade):void&lt;br&gt;&amp;nbsp;+&amp;nbsp;getCargaHorariaFormatada():String&lt;br&gt;&amp;nbsp;+&amp;nbsp;cargaHorariaTotal():Long&lt;br&gt;&amp;nbsp;+&amp;nbsp;chExigidaEmMs():Long&lt;br&gt;&amp;nbsp;+&amp;nbsp;chExigidaEmHoras():int&lt;br&gt;&amp;nbsp;+&amp;nbsp;getCargaHorariaRestanteFormatada():String&lt;br&gt;&amp;nbsp;+ adicionaSituacao(Situacao situacao):void&lt;br&gt;&amp;nbsp;+&amp;nbsp;getSituacaoAtual():String&lt;br&gt;&lt;span style=&quot;background-color: initial;&quot;&gt;&amp;nbsp;+ getSituacao():Situacao&lt;br&gt;&amp;nbsp;+ situacaoFrequenciaMaisRecente(Situacao situacao):SituacaoFrequenciaMensal&lt;br&gt;&amp;nbsp;+&amp;nbsp;&amp;nbsp;getEnviada():&lt;/span&gt;SituacaoFrequenciaMensal&lt;br&gt;&lt;span style=&quot;background-color: initial;&quot;&gt;&amp;nbsp;+&amp;nbsp;&amp;nbsp;getRecusa():&lt;/span&gt;SituacaoFrequenciaMensal&lt;br&gt;&lt;span style=&quot;background-color: initial;&quot;&gt;&amp;nbsp;+&amp;nbsp;&amp;nbsp;getHomologada():&lt;/span&gt;SituacaoFrequenciaMensal&lt;br&gt;&lt;span style=&quot;background-color: initial;&quot;&gt;&amp;nbsp;+&amp;nbsp;&amp;nbsp;getPreenchendo():&lt;/span&gt;SituacaoFrequenciaMensal&lt;br&gt;&lt;span style=&quot;background-color: initial;&quot;&gt;&amp;nbsp;+&amp;nbsp;&amp;nbsp;getNotificada():&lt;/span&gt;SituacaoFrequenciaMensal&lt;br&gt;&lt;span style=&quot;background-color: initial;&quot;&gt;&amp;nbsp;+ getSituacaoFrequencia():SituacaoFrequenciaMensal&lt;br&gt;&amp;nbsp;+ getEnvioFrequencia():Boolean&lt;br&gt;&amp;nbsp;+ cargaHorariaEmHoras():long&lt;br&gt;&amp;nbsp;+ getDataFormatada():String&lt;br&gt;&amp;nbsp;+ getMesAnoFormatado():String&lt;br&gt;&amp;nbsp;+ setDataFormatada(String dataFormatada):void&lt;br&gt;&amp;nbsp;+ getPodeExcluir(): Boolean&lt;br&gt;&amp;nbsp;+ getPodeCriar(): Boolean&lt;br&gt;&amp;nbsp;+ podePersistirNotificacao():Boolean&lt;br&gt;&lt;br&gt;&amp;nbsp;&lt;/span&gt;&lt;br&gt;&lt;p style=&quot;margin:0px;margin-left:4px;&quot;&gt;&lt;br&gt;&lt;/p&gt;" style="verticalAlign=top;align=left;overflow=fill;fontSize=12;fontFamily=Helvetica;html=1;" vertex="1" parent="WIyWlLk6GJQsqaUBKTNV-1">
          <mxGeometry x="-80" y="-340" width="240" height="150" as="geometry" />
        </mxCell>
      </root>
    </mxGraphModel>
  </diagram>
</mxfile>
